# xmcd CD database file
#
# Track frame offsets:
#	150
#	16241
#	25912
#	38904
#	53852
#	67411
#	81410
#	94768
#	107940
#	119371
#	130209
#	143011
#	154712
#	168702
#	180044
#	194086
#	207034
#	220382
#	234934
#	248933
#	264209
#	279630
#	291547
#	308796
#	321282
#	336924
#
# Disc length: 4665 seconds
#
# Revision: 0
# Processed by: cddbd v1.5.1PL0 Copyright (c) Steve Scherf et al.
# Submitted via: CDex 1.51
#
DISCID=8b12371a
DTITLE=Lowell Fulson - The Complete Kent Recordings - Disk 1
DYEAR=2001
DGENRE=Blues
TTITLE0=Black Nights
TTITLE1=Little Angel
TTITLE2=Everytime It Rains
TTITLE3=Just One More Time
TTITLE4=My Heart Belongs To You
TTITLE5=Too Many Drivers
TTITLE6=Key To My Heart
TTITLE7=Strange Feeling
TTITLE8=What's Gonna Be
TTITLE9=No More Pt. 1
TTITLE10=No More Pt. 2
TTITLE11=Shattered Dreams
TTITLE12=Sittin' Here Thinkin'
TTITLE13=Talkin' Woman
TTITLE14=Blues Around Midnight
TTITLE15=Change Your Ways
TTITLE16=My Aching Back
TTITLE17=Trouble I'm In
TTITLE18=Ask At Any Door In Town
TTITLE19=Lonely Day
TTITLE20=Hustler's Game
TTITLE21=Get Your Game Up Tight
TTITLE22=Year Of 29
TTITLE23=Two Way Wishing
TTITLE24=Back Door Key
TTITLE25=Confessin' The Blues
EXTD=YEAR: 2001
EXTT0=
EXTT1=
EXTT2=
EXTT3=
EXTT4=
EXTT5=
EXTT6=
EXTT7=
EXTT8=
EXTT9=
EXTT10=
EXTT11=
EXTT12=
EXTT13=
EXTT14=
EXTT15=
EXTT16=
EXTT17=
EXTT18=
EXTT19=
EXTT20=
EXTT21=
EXTT22=
EXTT23=
EXTT24=
EXTT25=
PLAYORDER=
